<?xml version="1.0" encoding="utf-8"?>
<!-- Generator: Adobe Illustrator 21.0.0, SVG Export Plug-In . SVG Version: 6.00 Build 0)  -->
<svg version="1.1" id="Layer_1" xmlns="http://www.w3.org/2000/svg" xmlns:xlink="http://www.w3.org/1999/xlink" x="0px" y="0px"
	 viewBox="0 0 150 50" style="enable-background:new 0 0 150 50;" xml:space="preserve">
<style type="text/css">
	.st0{fill:none;stroke:#FFFFFF;stroke-width:3;stroke-miterlimit:10;}
	.st1{fill:#C1A57B;}
	.st2{fill:#ECECEC;}
</style>
<path class="st0" d="M27,59.5"/>
<g>
	<path class="st1" d="M28.8,8.1l19,6.7V7.6c0-1.2-0.9-2.1-2.1-2.1H10.9c-1.2,0-2.1,0.9-2.1,2.1v7.2l19-6.7
		C28.1,7.9,28.5,7.9,28.8,8.1z"/>
	<polygon class="st1" points="25,39.8 25,40.1 25,42.5 31.5,42.5 31.5,39.8 	"/>
	<rect x="16" y="38.8" class="st1" width="4.5" height="3.8"/>
	<rect x="36" y="38.8" class="st1" width="4.5" height="3.8"/>
	<rect x="25" y="35.7" class="st1" width="6.5" height="2.6"/>
	<path class="st1" d="M28.7,18c2,0.2,3.6,1.9,3.6,4h-8c0-2.1,1.6-3.8,3.6-4v-6.8L8.8,18v22.4c0,1.2,0.9,2.1,2.1,2.1h3.6V38v-9
		c0-0.4,0.3-0.8,0.8-0.8S16,28.6,16,29v8.3h5.3c0.4,0,0.8,0.3,0.8,0.8v4.5h1.5v-2.4v-1.8v-2.6h-2.8c-0.4,0-0.7-0.3-0.7-0.7
		s0.3-0.7,0.7-0.7h15c0.4,0,0.7,0.3,0.7,0.7s-0.3,0.7-0.7,0.7H33v2.6v0.4v3.9h1.5V38c0-0.4,0.3-0.8,0.8-0.8h5.3V29
		c0-0.4,0.3-0.8,0.8-0.8S42,28.6,42,29v9v4.5h3.6c1.2,0,2.1-0.9,2.1-2.1V18l-19.1-6.8V18z"/>
</g>
<path class="st2" d="M61.3,18.7c0.3,0,0.5,0.2,0.5,0.5v7.4h0.6c0.6,0,1.2,0,1.8-0.1s1.3-0.1,1.9-0.2l0.1,0.9c0,0.3-0.2,0.5-0.4,0.6
	c-0.5,0.1-1.1,0.1-1.6,0.2c-0.8,0-1.6,0.1-2.5,0.1h-1c-0.3,0-0.5-0.2-0.5-0.5v-8.3c0-0.3,0.2-0.5,0.5-0.5H61.3z M71.9,32h-0.5
	c-0.3,0-0.5-0.2-0.5-0.5V24c0-0.3-0.2-0.5-0.5-0.5h-0.8c-0.3,0-0.5,0.2-0.5,0.5v6.8c0,0.3-0.2,0.5-0.5,0.5h-0.5
	c-0.3,0-0.5-0.2-0.5-0.5V18.1c0-0.3,0.2-0.5,0.5-0.5h0.5c0.3,0,0.5,0.2,0.5,0.5v3.5c0,0.3,0.2,0.5,0.5,0.5h0.8
	c0.3,0,0.5-0.2,0.5-0.5v-3.8c0-0.3,0.2-0.5,0.5-0.5h0.5c0.3,0,0.5,0.2,0.5,0.5v13.7C72.4,31.8,72.2,32,71.9,32z"/>
<path class="st1" d="M82.8,21.8c-0.1,0.2-0.2,0.4-0.5,0.6c-0.2,0.3-0.5,0.5-0.8,0.8c-0.4,0.3-0.9,0.6-1.4,1
	c-0.4,0.3-0.7,0.5-1.1,0.8c-0.3,0.2-0.6,0.1-0.8-0.1l-0.7-0.9c0.6-0.4,1.2-0.8,1.7-1.2c0.6-0.4,1-0.7,1.4-1.1
	c0.3-0.2,0.5-0.4,0.6-0.7c0.2-0.2,0.3-0.4,0.4-0.7c0.1-0.2,0.1-0.5,0.2-0.7c0-0.3,0-0.6,0-0.9v-0.2h-3.7v-1.6h9.1v1.6h-3.5v0.1
	c0,0.3,0,0.6,0,0.8c0,0.2,0,0.4,0.1,0.6c0.1,0.2,0.1,0.4,0.3,0.6c0.1,0.2,0.3,0.4,0.5,0.6c0.4,0.4,0.9,0.8,1.5,1.1
	c0.5,0.4,1.1,0.7,1.6,1.1l-0.7,0.9c-0.2,0.3-0.6,0.3-0.8,0.1c-0.3-0.2-0.7-0.4-1-0.7c-0.5-0.3-0.9-0.7-1.3-1
	c-0.3-0.2-0.5-0.4-0.7-0.6C83,22.1,82.9,21.9,82.8,21.8L82.8,21.8z M91.6,26.3v6.5c0,0.3-0.3,0.6-0.6,0.6h-9.7
	c-0.3,0-0.6-0.3-0.6-0.6v-6.5c0-0.3,0.3-0.6,0.6-0.6h0.6c0.3,0,0.6,0.3,0.6,0.6v1c0,0.3,0.3,0.6,0.6,0.6h6c0.3,0,0.6-0.3,0.6-0.6v-1
	c0-0.3,0.3-0.6,0.6-0.6H91C91.3,25.7,91.6,26,91.6,26.3z M89.7,31.2v-1.1c0-0.3-0.3-0.6-0.6-0.6h-6c-0.3,0-0.6,0.3-0.6,0.6v1.1
	c0,0.3,0.3,0.6,0.6,0.6h6C89.4,31.8,89.7,31.5,89.7,31.2z M89.7,24.3v-7.8c0-0.3,0.3-0.6,0.6-0.6H91c0.3,0,0.6,0.3,0.6,0.6v7.8
	c0,0.3-0.3,0.6-0.6,0.6h-0.6C90,24.9,89.7,24.6,89.7,24.3z"/>
<g>
	<path class="st2" d="M100.7,31.5v-5c0-0.3-0.2-0.5-0.5-0.5h-5.5v-1.3h4c0.1-0.4,0.2-0.8,0.3-1.2c0.1-0.4,0.1-0.8,0.2-1.2
		c0.1-0.4,0.1-0.8,0.1-1.1c0-0.3,0-0.6,0-0.9v-0.6H96v-1.4h4.9v1.1c0,0.9,0,1.8-0.1,2.7c-0.1,0.7-0.2,1.3-0.3,2
		c-0.1,0.3,0.2,0.6,0.5,0.6h3c0.2,0,0.5-0.2,0.5-0.4c0.2-0.8,0.3-1.4,0.3-2c0.1-0.7,0.1-1.4,0.1-2v-0.6h-3.2v-1.4h4.8v1.1
		c0,0.8,0,1.7-0.1,2.6c0,0.7-0.1,1.4-0.3,2.1c-0.1,0.3,0.2,0.6,0.5,0.6h1.7V26h-5.5c-0.3,0-0.5,0.2-0.5,0.5v5c0,0.3-0.2,0.5-0.5,0.5
		h-0.6C100.9,32,100.7,31.8,100.7,31.5z"/>
	<path class="st2" d="M110.3,27.6v-8.5c0-0.3,0.2-0.5,0.5-0.5h5.9c0.3,0,0.5,0.2,0.5,0.5v8.5c0,0.3-0.2,0.5-0.5,0.5h-5.9
		C110.6,28.1,110.3,27.9,110.3,27.6z M112.4,26.8h2.7c0.3,0,0.5-0.2,0.5-0.5v-5.8c0-0.3-0.2-0.5-0.5-0.5h-2.7
		c-0.3,0-0.5,0.2-0.5,0.5v5.8C111.9,26.6,112.1,26.8,112.4,26.8z M119.9,31.5V17.8c0-0.3,0.2-0.5,0.5-0.5h0.5c0.3,0,0.5,0.2,0.5,0.5
		v13.7c0,0.3-0.2,0.5-0.5,0.5h-0.5C120.1,32,119.9,31.8,119.9,31.5z"/>
	<path class="st2" d="M124.8,28c-0.2-0.2-0.1-0.6,0.2-0.7c0.7-0.4,1.2-0.7,1.7-1.1c0.6-0.4,1.1-0.7,1.5-1.1c0.4-0.3,0.7-0.6,0.9-0.9
		c0.2-0.3,0.4-0.6,0.5-0.8c0.1-0.3,0.2-0.6,0.2-0.9s0-0.7,0-1v-0.9c0-0.3-0.2-0.5-0.5-0.5h-4.5v-1.3h6.1c0.3,0,0.5,0.2,0.5,0.5v2.3
		c0,0.5,0,0.9,0,1.3c0,0.4-0.1,0.8-0.2,1.1c-0.1,0.3-0.3,0.7-0.6,1c-0.3,0.3-0.6,0.7-1.1,1.1c-0.5,0.4-1,0.8-1.7,1.3
		c-0.6,0.4-1.3,0.8-2,1.3c-0.2,0.1-0.5,0.1-0.7-0.2L124.8,28z M134.5,31.5V17.8c0-0.3,0.2-0.5,0.5-0.5h0.5c0.3,0,0.5,0.2,0.5,0.5
		v13.7c0,0.3-0.2,0.5-0.5,0.5H135C134.7,32,134.5,31.8,134.5,31.5z"/>
</g>
</svg>
